<svg xmlns="http://www.w3.org/2000/svg" width="12" height="12" fill="none"><path fill="#FDFDFD" d="M6 10.5a.5.5 0 0 1-.5.5h-3A2.503 2.503 0 0 1 0 8.5v-6C0 1.121 1.121 0 2.5 0h6C9.879 0 11 1.121 11 2.5v3a.5.5 0 1 1-1 0v-3C10 1.673 9.327 1 8.5 1h-6C1.673 1 1 1.673 1 2.5v3.48l1.404-1.405a1.967 1.967 0 0 1 2.779 0l2.67 2.671a.5.5 0 1 1-.707.707l-2.67-2.67a.967.967 0 0 0-1.365 0L1 7.393V8.5c0 .827.673 1.5 1.5 1.5h3a.5.5 0 0 1 .5.5Zm1.5-8.75c.827 0 1.5.673 1.5 1.5s-.673 1.5-1.5 1.5S6 4.077 6 3.25s.673-1.5 1.5-1.5Zm0 1a.5.5 0 1 0 .001 1.001A.5.5 0 0 0 7.5 2.75Zm4 6.25H10V7.5a.5.5 0 1 0-1 0V9H7.5a.5.5 0 1 0 0 1H9v1.5a.5.5 0 1 0 1 0V10h1.5a.5.5 0 1 0 0-1Z"/></svg>