<svg xmlns="http://www.w3.org/2000/svg" width="10" height="10" fill="none"><g clip-path="url(#a)"><path fill="#9AA1A9" d="M.553 5.167 2.036 6.25l-.563 1.745A1.324 1.324 0 0 0 1.966 9.5a1.324 1.324 0 0 0 1.584-.008L5 8.425 6.45 9.49a1.345 1.345 0 0 0 2.077-1.496L7.964 6.25l1.483-1.083a1.345 1.345 0 0 0-.791-2.43H6.832L6.28 1.013a1.345 1.345 0 0 0-2.56 0l-.553 1.724h-1.82a1.345 1.345 0 0 0-.792 2.43H.553Z"/><path fill="#FF9800" d="M.553 5.167 2.036 6.25l-.563 1.745A1.324 1.324 0 0 0 1.966 9.5a1.324 1.324 0 0 0 1.584-.008L5 8.425 6.45 9.49a1.345 1.345 0 0 0 2.077-1.496L7.964 6.25s.463-.32.691-.487V2.737H6.833L6.28 1.013a1.345 1.345 0 0 0-2.56 0l-.553 1.724h-1.82a1.345 1.345 0 0 0-.792 2.43H.553Z"/></g><defs><clipPath id="a"><path fill="#fff" d="M0 0h10v10H0z"/></clipPath></defs></svg>