<svg xmlns="http://www.w3.org/2000/svg" width="48" height="48" fill="none"><rect width="47" height="47" x=".5" y=".5" fill="#111" stroke="#FDFDFD" rx="23.5"/><g fill="#FDFDFD" clip-path="url(#a)"><path d="M18 26.995a6 6 0 1 0 6.75-5.948v-2.302.005V17.437c0 .375 0-.375 0 0v-1.692a.75.75 0 1 0-1.5 0v5.302A6.006 6.006 0 0 0 18 26.995Zm10.5 0a4.5 4.5 0 1 1-9 0 4.5 4.5 0 0 1 9 0Z"/><rect width="5.25" height="1.5" x="22.102" y="16.038" rx=".75" transform="rotate(30 22.102 16.038)"/><rect width="5.25" height="1.5" x="21.352" y="18.663" rx=".75" transform="rotate(-30 21.352 18.663)"/></g><defs><clipPath id="a"><path fill="#fff" d="M15 15h18v18H15z"/></clipPath></defs></svg>