<svg xmlns="http://www.w3.org/2000/svg" width="48" height="48" fill="none"><rect width="47" height="47" x=".5" y=".5" fill="#FD7014" stroke="#FDFDFD" rx="23.5"/><g clip-path="url(#a)"><path fill="#FDFDFD" d="M31.5 15h-2.25a.75.75 0 0 0 0 1.5h1.19l-3.837 3.836a4.47 4.47 0 0 0-5.206 0l-.98-.98.594-.595a.75.75 0 1 0-1.06-1.06l-.595.595L17.56 16.5h1.19a.75.75 0 0 0 0-1.5H16.5c-.827 0-1.5.673-1.5 1.5v2.25a.75.75 0 0 0 1.5 0v-1.19l1.796 1.796-.595.595a.75.75 0 1 0 1.06 1.06l.595-.595.98.98A4.471 4.471 0 0 0 19.5 24a4.504 4.504 0 0 0 3.75 4.433V30h-.75a.75.75 0 0 0 0 1.5h.75v.75a.75.75 0 0 0 1.5 0v-.75h.75a.75.75 0 0 0 0-1.5h-.75v-1.567A4.503 4.503 0 0 0 28.5 24a4.47 4.47 0 0 0-.836-2.603L31.5 17.56v1.189a.75.75 0 0 0 1.5 0V16.5c0-.827-.673-1.5-1.5-1.5ZM24 27c-1.654 0-3-1.346-3-3s1.346-3 3-3 3 1.346 3 3-1.346 3-3 3Z"/></g><defs><clipPath id="a"><path fill="#fff" d="M15 15h18v18H15z"/></clipPath></defs></svg>