<svg xmlns="http://www.w3.org/2000/svg" width="96" height="96" fill="none"><rect width="95" height="95" x=".5" y=".5" fill="#111" stroke="#FDFDFD" rx="47.5"/><path fill="#FDFDFD" d="M48 48a6.667 6.667 0 1 0-6.666-6.667A6.673 6.673 0 0 0 48 48Zm0-11.111a4.444 4.444 0 1 1 0 8.888 4.444 4.444 0 0 1 0-8.888ZM48 50.667c-2.651.003-5.193 1.015-7.068 2.815s-2.93 4.24-2.932 6.785c0 .283.117.554.325.754.209.2.491.312.786.312.295 0 .577-.112.786-.312.208-.2.325-.471.325-.754 0-1.98.82-3.88 2.278-5.28 1.459-1.4 3.437-2.187 5.5-2.187s4.041.787 5.5 2.187c1.458 1.4 2.278 3.3 2.278 5.28 0 .283.117.554.325.754.209.2.491.312.786.312.295 0 .577-.112.786-.312.208-.2.325-.471.325-.754-.003-2.546-1.057-4.986-2.932-6.785-1.875-1.8-4.417-2.812-7.068-2.815Z"/></svg>