<svg xmlns="http://www.w3.org/2000/svg" width="22" height="22" fill="none"><path fill="#F44336" d="m19.493 9.168-2.619-4.364C16.206 3.69 14.97 3 13.644 3H8.358c-1.325 0-2.563.692-3.23 1.804L2.508 9.168a3.558 3.558 0 0 0 0 3.664l2.619 4.364C5.794 18.31 7.03 19 8.356 19h5.288c1.325 0 2.562-.692 3.23-1.804l2.618-4.364a3.558 3.558 0 0 0 0-3.664Zm-5.71 3.5a.712.712 0 0 1 0 1.028.757.757 0 0 1-.528.213.757.757 0 0 1-.53-.213l-1.714-1.668-1.715 1.668a.757.757 0 0 1-.529.213.757.757 0 0 1-.529-.213.713.713 0 0 1 0-1.029L9.953 11 8.238 9.332a.712.712 0 0 1 0-1.028.762.762 0 0 1 1.058 0L11.01 9.97l1.715-1.667a.762.762 0 0 1 1.057 0 .712.712 0 0 1 0 1.028L12.068 11l1.715 1.667Z"/></svg>