<svg xmlns="http://www.w3.org/2000/svg" width="48" height="48" fill="none"><rect width="47" height="47" x=".5" y=".5" fill="#FD7014" stroke="#FDFDFD" rx="23.5"/><g clip-path="url(#a)"><path fill="#FDFDFD" d="M30.759 15h-3.736a.748.748 0 0 0 0 1.497h3.427l-5.104 5.112a6.363 6.363 0 0 0-8.947 1.058 6.388 6.388 0 0 0 1.056 8.962 6.363 6.363 0 0 0 8.947-1.058 6.389 6.389 0 0 0 0-7.904l5.104-5.112v3.431a.748.748 0 1 0 1.494 0v-3.741A2.243 2.243 0 0 0 30.76 15ZM21.42 31.463a4.86 4.86 0 0 1-4.856-4.864 4.86 4.86 0 0 1 4.856-4.864 4.86 4.86 0 0 1 4.856 4.864 4.866 4.866 0 0 1-4.856 4.864Z"/></g><defs><clipPath id="a"><path fill="#fff" d="M15 15h18v18H15z"/></clipPath></defs></svg>